<?xml version="1.0" encoding="utf-8"?>
<!-- Generator: Adobe Illustrator 21.1.0, SVG Export Plug-In . SVG Version: 6.00 Build 0)  -->
<svg version="1.1" id="Layer_1" xmlns="http://www.w3.org/2000/svg" xmlns:xlink="http://www.w3.org/1999/xlink" x="0px" y="0px"
	 viewBox="0 0 278.423 34.968" enable-background="new 0 0 278.423 34.968" xml:space="preserve">
<g>
	<path fill="#231F20" d="M23.949,29.832c1.349,0,2.443,1.096,2.443,2.448c0,1.343-1.095,2.43-2.443,2.43
		c-1.344,0-2.443-1.087-2.443-2.43C21.506,30.928,22.605,29.832,23.949,29.832z"/>
	<path fill="#231F20" d="M42.403,29.832c1.345,0,2.444,1.096,2.444,2.448c0,1.343-1.1,2.43-2.444,2.43
		c-1.348,0-2.446-1.087-2.446-2.43C39.957,30.928,41.056,29.832,42.403,29.832z"/>
	<path fill="#231F20" d="M70.066,29.832c1.344,0,2.441,1.096,2.441,2.448c0,1.343-1.098,2.43-2.441,2.43
		c-1.345,0-2.441-1.087-2.441-2.43C67.625,30.928,68.722,29.832,70.066,29.832z"/>
	<g>
		<path fill="#231F20" d="M0,0.287h4.734l7.441,20.73h0.097V0.287h4.929v34.402h-4.641L5.026,14.01H4.928v20.68H0V0.287z"/>
		<path fill="#231F20" d="M30.891,0.287h4.924v34.402h-4.924V0.287z"/>
		<path fill="#231F20" d="M64.296,26.999c0,4.253-3.429,7.969-7.824,7.969c-3.774,0-8.119-1.828-8.119-8.111V7.923
			C48.353,3.429,51.588,0,56.373,0c4.539,0,7.923,3.429,7.923,8.217v1.926h-4.927V8.496c0-1.926-1.162-3.565-3.045-3.565
			c-2.467,0-3.044,1.685-3.044,4.003v17.591c0,1.979,0.774,3.52,2.995,3.52c1.352,0,3.094-0.771,3.094-3.474v-1.692h4.927V26.999z"
			/>
		<path fill="#231F20" d="M77.127,0.287h14.69v4.644h-9.762v10.092h8.505v4.636h-8.505v10.099h9.762v4.933h-14.69V0.287z"/>
	</g>
	<path fill="#231F20" d="M98.846,29.832c1.344,0,2.438,1.096,2.438,2.448c0,1.343-1.095,2.43-2.438,2.43
		c-1.344,0-2.443-1.087-2.443-2.43C96.402,30.928,97.502,29.832,98.846,29.832z"/>
	<g>
		<path fill="#231F20" d="M135.134,19.865c0,3.102-2.504,5.817-5.711,5.817c-2.751,0-5.924-1.342-5.924-5.924V5.939
			c0-3.278,2.363-5.781,5.853-5.781c3.314,0,5.781,2.503,5.781,5.993v1.41h-3.596v-1.2c0-1.408-0.848-2.608-2.223-2.608
			c-1.796,0-2.218,1.235-2.218,2.926v12.832c0,1.447,0.563,2.576,2.183,2.576c0.987,0,2.258-0.565,2.258-2.539v-1.233h3.596V19.865z
			"/>
		<path fill="#231F20" d="M140.712,6.29c0-4.087,3.102-6.132,6.028-6.132c2.927,0,6.028,2.045,6.028,6.132v13.258
			c0,4.089-3.102,6.135-6.028,6.135c-2.927,0-6.028-2.046-6.028-6.135V6.29z M144.308,19.548c0,1.728,1.128,2.539,2.433,2.539
			c1.306,0,2.433-0.812,2.433-2.539V6.29c0-1.725-1.127-2.537-2.433-2.537c-1.305,0-2.433,0.813-2.433,2.537V19.548z"/>
		<path fill="#231F20" d="M158.622,0.369h3.598v21.504h7.12v3.597h-10.718V0.369z"/>
		<path fill="#231F20" d="M174.727,0.369h3.597v21.504h7.122v3.597h-10.719V0.369z"/>
		<path fill="#231F20" d="M190.83,0.369h10.719v3.384h-7.122v7.369h6.203v3.384h-6.203v7.367h7.122v3.597H190.83V0.369z"/>
		<path fill="#231F20" d="M218.394,19.865c0,3.102-2.504,5.817-5.711,5.817c-2.748,0-5.924-1.342-5.924-5.924V5.939
			c0-3.278,2.362-5.781,5.852-5.781c3.316,0,5.782,2.503,5.782,5.993v1.41h-3.596v-1.2c0-1.408-0.847-2.608-2.22-2.608
			c-1.799,0-2.222,1.235-2.222,2.926v12.832c0,1.447,0.566,2.576,2.185,2.576c0.988,0,2.257-0.565,2.257-2.539v-1.233h3.596V19.865z
			"/>
		<path fill="#231F20" d="M227.203,3.753h-4.157V0.369h11.915v3.384h-4.16V25.47h-3.598V3.753z"/>
		<path fill="#231F20" d="M240.032,0.369h3.598V25.47h-3.598V0.369z"/>
		<path fill="#231F20" d="M257.248,25.47h-3.173l-5.112-25.101h3.809l2.855,17.522h0.069l2.892-17.522h3.808L257.248,25.47z"/>
		<path fill="#231F20" d="M267.695,0.369h10.717v3.384h-7.121v7.369h6.205v3.384h-6.205v7.367h7.121v3.597h-10.717V0.369z"/>
	</g>
	<g>
		<polygon fill="#231F20" points="114.127,33.892 114.127,30.636 278.423,30.636 278.423,33.892 114.127,33.892 		"/>
	</g>
</g>
</svg>
